HIERARCHY
ROOT Hips
{
	OFFSET 0.000000 0.000000 0.000000
	CHANNELS 6 Xposition Yposition Zposition Xrotation Yrotation Zrotation
	JOINT LeftUpLeg_virtual
	{
		OFFSET 0.000000 0.000000 0.000000
		CHANNELS 3 Xrotation Yrotation Zrotation
		JOINT LeftUpLeg
		{
			OFFSET 15.427100 -6.655098 0.678600
			CHANNELS 3 Xrotation Yrotation Zrotation
			JOINT LeftLeg
			{
				OFFSET 4.081073 -39.591068 13.024000
				CHANNELS 3 Xrotation Yrotation Zrotation
				JOINT LeftFoot
				{
					OFFSET -4.081074 -37.707932 -15.979700
					CHANNELS 3 Xrotation Yrotation Zrotation
					JOINT LeftToeBase
					{
						OFFSET 5.346399 -15.068900 20.645000
						CHANNELS 3 Xrotation Yrotation Zrotation
						JOINT LeftToe_End
						{
							OFFSET 2.754700 0.931300 11.300900
							CHANNELS 3 Xrotation Yrotation Zrotation
							End Site
							{
								OFFSET 0 0 0
							}
						}
					}
				}
			}
		}
	}
	JOINT RightUpLeg_virtual
	{
		OFFSET 0.000000 0.000000 0.000000
		CHANNELS 3 Xrotation Yrotation Zrotation
		JOINT RightUpLeg
		{
			OFFSET -15.569500 -6.655098 0.678600
			CHANNELS 3 Xrotation Yrotation Zrotation
			JOINT RightLeg
			{
				OFFSET -4.081825 -39.591045 13.023800
				CHANNELS 3 Xrotation Yrotation Zrotation
				JOINT RightFoot
				{
					OFFSET 4.081824 -37.707954 -15.979600
					CHANNELS 3 Xrotation Yrotation Zrotation
					JOINT RightToeBase
					{
						OFFSET -5.346400 -15.068900 20.645000
						CHANNELS 3 Xrotation Yrotation Zrotation
						JOINT RightToe_End
						{
							OFFSET -2.754700 0.931300 11.300900
							CHANNELS 3 Xrotation Yrotation Zrotation
							End Site
							{
								OFFSET 0 0 0
							}
						}
					}
				}
			}
		}
	}
	JOINT Spine_virtual
	{
		OFFSET 0.000000 0.000000 0.000000
		CHANNELS 3 Xrotation Yrotation Zrotation
		JOINT Spine
		{
			OFFSET -0.279200 12.230698 -2.892100
			CHANNELS 3 Xrotation Yrotation Zrotation
			JOINT Spine1
			{
				OFFSET -0.232667 10.192268 -1.242267
				CHANNELS 3 Xrotation Yrotation Zrotation
				JOINT Spine1_split
				{
					OFFSET -0.232667 10.192268 -1.242267
					CHANNELS 3 Xrotation Yrotation Zrotation
					JOINT Spine2
					{
						OFFSET -0.232667 10.192268 -1.242267
						CHANNELS 3 Xrotation Yrotation Zrotation
						JOINT Neck_virtual
						{
							OFFSET 0.000000 0.000000 0.000000
							CHANNELS 3 Xrotation Yrotation Zrotation
							JOINT Neck
							{
								OFFSET -0.418800 17.814194 8.416900
								CHANNELS 3 Xrotation Yrotation Zrotation
								JOINT Head
								{
									OFFSET 0.000000 7.031097 3.806800
									CHANNELS 3 Xrotation Yrotation Zrotation
									JOINT HeadTop_End
									{
										OFFSET 0.000000 24.646606 12.978600
										CHANNELS 3 Xrotation Yrotation Zrotation
										End Site
										{
											OFFSET 0 0 0
										}
									}
								}
							}
						}
						JOINT LeftShoulder_virtual
						{
							OFFSET 0.000000 0.000000 0.000000
							CHANNELS 3 Xrotation Yrotation Zrotation
							JOINT LeftShoulder
							{
								OFFSET 8.476499 7.247704 -3.868750
								CHANNELS 3 Xrotation Yrotation Zrotation
								JOINT LeftShoulder_split
								{
									OFFSET 8.476499 7.247704 -3.868750
									CHANNELS 3 Xrotation Yrotation Zrotation
									JOINT LeftArm
									{
										OFFSET 9.308998 -2.777710 0.208600
										CHANNELS 3 Xrotation Yrotation Zrotation
										JOINT LeftForeArm
										{
											OFFSET 29.972298 0.000000 0.000000
											CHANNELS 3 Xrotation Yrotation Zrotation
											JOINT LeftHand
											{
												OFFSET 26.026505 0.000000 0.000000
												CHANNELS 3 Xrotation Yrotation Zrotation
												End Site
												{
													OFFSET 0 0 0
												}
											}
										}
									}
								}
							}
						}
						JOINT RightShoulder_virtual
						{
							OFFSET 0.000000 0.000000 0.000000
							CHANNELS 3 Xrotation Yrotation Zrotation
							JOINT RightShoulder
							{
								OFFSET -7.570500 7.247704 -3.868750
								CHANNELS 3 Xrotation Yrotation Zrotation
								JOINT RightShoulder_split
								{
									OFFSET -7.570500 7.247704 -3.868750
									CHANNELS 3 Xrotation Yrotation Zrotation
									JOINT RightArm
									{
										OFFSET -9.308998 -2.777710 0.208500
										CHANNELS 3 Xrotation Yrotation Zrotation
										JOINT RightForeArm
										{
											OFFSET -29.972300 0.000000 0.000000
											CHANNELS 3 Xrotation Yrotation Zrotation
											JOINT RightHand
											{
												OFFSET -26.026505 0.000000 0.000000
												CHANNELS 3 Xrotation Yrotation Zrotation
												End Site
												{
													OFFSET 0 0 0
												}
											}
										}
									}
								}
							}
						}
					}
				}
			}
		}
	}
}
MOTION
Frames: 10
Frame Time: 0.03333333
-7.576028 83.612495 40.755547 0.000000 0.000000 0.000000 28.013029 7.080207 -18.636470 -72.851296 -6.130509 16.570956 26.114392 7.902571 -7.265710 26.810550 -3.903429 7.712786 -2.041194 0.591115 0.297401 0.000000 0.000000 0.000000 28.479708 10.780538 -20.350163 12.251941 -25.648487 -16.976818 60.991397 9.825839 3.001565 20.057691 -1.968601 14.586274 14.650346 0.747865 2.026537 0.000000 0.000000 0.000000 27.888129 8.082305 -20.432176 6.195862 13.587390 -8.052276 12.088488 11.739540 -7.268685 1.734002 1.957601 0.275217 0.000000 0.000000 0.000000 12.005844 11.024345 -7.584790 -11.089879 -6.658135 7.086378 -26.525670 -32.727937 19.305484 0.000000 0.000000 0.000000 11.577110 11.789596 -7.594710 0.012543 5.730883 5.488133 -3.894414 -0.494725 -0.971021 32.033256 -41.438273 -15.431375 0.555510 -29.345457 -0.709723 0.000000 0.000000 0.000000 11.656343 11.075732 -8.102742 5.150036 14.266278 -6.659271 0.165491 4.286730 -0.610318 -18.012387 58.642884 33.396835 -2.065798 41.082239 0.054106 0.000000 0.000000 0.000000 
-8.028746 83.244263 42.481464 0.000000 0.000000 0.000000 26.163383 7.989812 -17.920577 -73.120337 -6.129247 16.891311 30.601959 6.905619 -8.832509 23.569786 -4.283560 7.825819 -1.746010 0.543159 0.135640 0.000000 0.000000 0.000000 26.499263 11.130685 -19.435185 7.772433 -25.213619 -16.282066 59.273953 9.502691 2.496468 19.222505 -2.114966 11.589776 14.414230 0.740943 2.109507 0.000000 0.000000 0.000000 25.774523 8.255890 -19.627599 6.100234 12.126328 -8.375291 12.537065 10.843741 -7.390260 1.399230 2.104381 0.260011 0.000000 0.000000 0.000000 12.255665 10.246115 -7.718956 -11.411241 -6.423798 6.543537 -26.732392 -32.423810 19.756732 0.000000 0.000000 0.000000 11.608420 11.074073 -7.712036 0.146407 5.153987 6.392010 -3.887409 -1.404430 -1.706339 30.162348 -43.787612 -7.944669 0.831014 -27.650489 -0.427657 0.000000 0.000000 0.000000 11.893574 10.368324 -8.140517 4.921655 13.632077 -5.760105 0.745927 3.289426 -0.422608 -17.448490 54.690076 27.295859 -2.002699 39.855223 0.265278 0.000000 0.000000 0.000000 
-8.378252 83.262291 44.273071 0.000000 0.000000 0.000000 24.509449 8.664817 -17.286908 -72.855838 -5.774360 17.130266 34.541616 5.905737 -9.853409 20.403798 -4.516378 7.932762 -1.291743 0.546761 -0.154520 0.000000 0.000000 0.000000 24.528055 11.602507 -18.751046 3.453394 -25.014854 -15.649203 56.824210 9.181542 2.053443 18.414595 -1.872265 8.017605 13.647114 0.819287 2.395563 0.000000 0.000000 0.000000 23.635513 8.396673 -18.979159 6.048440 10.656774 -8.698021 12.984742 9.661233 -7.494400 1.278122 2.026267 0.197369 0.000000 0.000000 0.000000 12.581792 9.186765 -7.857361 -11.698809 -6.273073 6.009064 -26.487873 -31.839395 20.358175 0.000000 0.000000 0.000000 11.766108 10.031761 -7.809843 0.285045 4.498549 7.069853 -3.732535 -2.129068 -2.311986 26.675971 -46.881380 -2.028270 1.040732 -25.230881 -0.071794 0.000000 0.000000 0.000000 12.282076 9.374949 -8.188377 4.883838 13.182451 -5.871451 1.079614 2.286029 -0.419556 -17.397101 51.420721 22.465930 -1.872793 37.630149 0.419524 0.000000 0.000000 0.000000 
-8.604650 83.577110 46.091171 0.000000 0.000000 0.000000 22.893913 9.158870 -16.764904 -71.866233 -5.052334 17.417691 38.044089 4.951551 -10.246468 17.418227 -4.516866 7.938041 -1.382144 0.584098 -0.499743 0.000000 0.000000 0.000000 22.529254 12.101080 -18.273591 -0.957088 -25.062081 -15.473558 54.009482 9.146367 1.469054 18.418459 -0.907568 5.239592 10.594457 0.868981 2.889693 0.000000 0.000000 0.000000 21.510608 8.609230 -18.483930 6.066265 9.025616 -9.051048 13.443678 8.103202 -7.509188 1.308215 1.948408 0.101076 0.000000 0.000000 0.000000 12.959608 7.732469 -7.894001 -11.847786 -6.150945 5.561082 -25.687857 -30.742552 21.163613 0.000000 0.000000 0.000000 12.083835 8.562511 -7.830727 0.405430 3.775449 7.486331 -3.620043 -2.386193 -2.635647 21.172996 -50.310091 1.629937 1.080168 -22.128986 0.282410 0.000000 0.000000 0.000000 12.776760 7.966349 -8.160771 5.000448 12.847955 -6.991356 1.194864 1.562964 -0.627315 -17.156322 48.850479 18.117461 -1.681764 35.369885 0.469454 0.000000 0.000000 0.000000 
-8.738072 84.041824 48.168625 0.000000 0.000000 0.000000 21.194765 9.325891 -16.342711 -70.275721 -3.926597 17.955101 41.349193 4.096059 -10.038322 14.452445 -4.230756 7.998540 -1.851343 0.610522 -0.881784 0.000000 0.000000 0.000000 20.539934 12.479227 -17.948313 -5.291498 -25.226670 -15.846876 50.528882 9.419370 0.730761 18.850641 0.766198 3.725511 6.206560 0.809180 3.564970 0.000000 0.000000 0.000000 19.320368 8.878041 -18.180668 6.147272 7.166234 -9.420999 13.888697 6.194267 -7.394923 1.471370 1.847732 -0.089461 0.000000 0.000000 0.000000 13.315091 5.893458 -7.771294 -11.795285 -5.986343 5.207581 -24.415432 -29.067356 22.155928 0.000000 0.000000 0.000000 12.534498 6.661169 -7.713110 0.480784 3.044713 7.756748 -3.408217 -2.325094 -2.546320 13.602412 -53.371300 2.603522 0.877883 -18.840961 0.570141 0.000000 0.000000 0.000000 13.324614 6.141441 -8.032882 5.213508 12.442020 -8.918108 1.252046 1.035767 -0.852470 -17.112045 46.911901 14.212447 -1.489183 34.047294 0.443454 0.000000 0.000000 0.000000 
-8.738441 84.539650 50.310371 0.000000 0.000000 0.000000 19.358529 9.193186 -16.092559 -68.172555 -2.500102 18.837983 44.329915 3.351778 -9.366043 11.248096 -3.730545 8.169001 -2.277930 0.611125 -1.210315 0.000000 0.000000 0.000000 18.625381 12.599437 -17.753412 -9.131808 -25.344238 -16.467784 45.969967 9.762085 -0.084289 18.903356 2.673315 3.002468 2.451766 0.658252 4.308940 0.000000 0.000000 0.000000 17.155842 8.990012 -18.039494 6.256923 5.113962 -9.758441 14.297462 4.026503 -7.135833 1.650578 1.843975 -0.261368 0.000000 0.000000 0.000000 13.633806 3.765523 -7.465500 -11.579995 -5.759026 4.966161 -22.878098 -26.856722 23.213009 0.000000 0.000000 0.000000 13.009031 4.456439 -7.429739 0.496973 2.419754 7.978148 -3.204054 -2.153282 -2.077626 4.236595 -55.659662 1.021441 0.459456 -16.183384 0.749435 0.000000 0.000000 0.000000 13.829341 3.990538 -7.762838 5.405382 11.910646 -11.310664 1.170659 0.457271 -0.809053 -18.610633 45.594955 11.467040 -1.334763 33.935085 0.366143 0.000000 0.000000 0.000000 
-8.551413 85.023407 52.422813 0.000000 0.000000 0.000000 17.388953 8.653651 -16.003290 -65.619929 -0.899925 20.157060 46.723125 2.623352 -8.461554 7.516255 -3.180252 8.233300 -2.508939 0.591598 -1.318464 0.000000 0.000000 0.000000 16.899802 12.227070 -17.675423 -12.297000 -25.220284 -16.950457 40.399401 9.721961 -0.785653 18.441748 4.177650 2.772589 0.475478 0.484011 4.907356 0.000000 0.000000 0.000000 15.095312 8.670270 -18.012944 6.351007 3.017203 -9.979110 14.616099 1.751520 -6.743665 1.668851 2.142172 -0.249866 0.000000 0.000000 0.000000 13.878839 1.501503 -7.007368 -11.313157 -5.399679 4.745282 -21.380498 -24.189938 24.193983 0.000000 0.000000 0.000000 13.411394 2.143891 -6.988209 0.460275 1.902623 8.279437 -3.003017 -1.867197 -1.300283 -5.850016 -57.000217 -2.325063 -0.067483 -14.698996 0.821215 0.000000 0.000000 0.000000 14.189686 1.705050 -7.339581 5.463806 11.244753 -13.610693 1.152114 -0.083944 -0.521072 -23.078784 44.783713 11.050648 -1.255324 35.009487 0.275294 0.000000 0.000000 0.000000 
-8.189202 85.611954 54.339153 0.000000 0.000000 0.000000 15.503778 7.564769 -16.105981 -62.614994 0.755926 21.807059 48.456227 1.914480 -7.454811 3.438851 -2.638061 7.998159 -2.500423 0.543108 -1.105789 0.000000 0.000000 0.000000 15.336227 11.215896 -17.704100 -15.045814 -24.842190 -17.165780 34.126227 9.299348 -1.138210 18.555770 5.172962 3.439790 0.181383 0.359912 5.078811 0.000000 0.000000 0.000000 13.297150 7.788051 -18.120929 6.371893 1.058871 -9.995195 14.794507 -0.453070 -6.253004 1.696493 2.442125 -0.281454 0.000000 0.000000 0.000000 14.002663 -0.685199 -6.451491 -11.157452 -4.926910 4.462284 -20.178010 -21.348876 24.985535 0.000000 0.000000 0.000000 13.642709 -0.079103 -6.430357 0.379620 1.540129 8.716022 -2.736277 -1.908991 -0.296236 -15.301999 -57.505323 -6.331598 -0.565388 -14.557290 0.797845 0.000000 0.000000 0.000000 14.354433 -0.501180 -6.790665 5.374413 10.557664 -15.432947 1.081192 -0.688773 -0.000857 -31.401388 44.203646 14.109424 -1.271806 36.433575 0.231659 0.000000 0.000000 0.000000 
-7.667458 86.396400 55.967762 0.000000 0.000000 0.000000 13.873403 5.945228 -16.452932 -59.245792 2.255826 23.659647 49.509777 1.180091 -6.523932 -0.526575 -2.068663 7.086785 -2.407130 0.471995 -0.598637 0.000000 0.000000 0.000000 13.991378 9.650461 -17.937325 -17.658805 -24.066916 -16.869958 27.325787 8.876942 -1.060428 19.916188 5.929547 5.693765 0.276285 0.283154 4.715292 0.000000 0.000000 0.000000 11.813094 6.272844 -18.307567 6.316495 -0.599685 -9.709241 14.811363 -2.436785 -5.698148 1.731676 2.594663 -0.271233 0.000000 0.000000 0.000000 13.987815 -2.641161 -5.835119 -11.299057 -4.370214 4.069191 -19.358178 -18.590394 25.533957 0.000000 0.000000 0.000000 13.697111 -2.059906 -5.826514 0.281222 1.336268 9.298345 -2.507761 -1.875906 0.642327 -23.527251 -57.689581 -10.504175 -0.972218 -15.436994 0.725664 0.000000 0.000000 0.000000 14.307367 -2.459287 -6.150622 5.172845 9.987270 -16.484498 0.861262 -1.068490 0.434844 -43.299035 42.953407 20.897553 -1.353720 37.595007 0.271689 0.000000 0.000000 0.000000 
-6.940402 87.422401 57.352306 0.000000 0.000000 0.000000 12.503798 3.803391 -17.002767 -55.659041 3.598670 25.620277 49.955607 0.528362 -5.811644 -4.074128 -1.403240 5.634503 -2.452982 0.372410 0.083152 0.000000 0.000000 0.000000 12.887698 7.589538 -18.365311 -20.028379 -22.686466 -15.852014 20.361018 8.499039 -0.737014 21.986107 6.610379 9.075150 0.028685 0.263876 3.962214 0.000000 0.000000 0.000000 10.602118 4.171162 -18.530300 6.194743 -1.861887 -9.115252 14.675710 -4.096981 -5.116657 1.732244 2.682030 -0.267339 0.000000 0.000000 0.000000 13.827128 -4.260337 -5.214109 -11.746891 -3.832984 3.509599 -18.942329 -16.101210 25.861297 0.000000 0.000000 0.000000 13.570487 -3.714599 -5.225767 0.155649 1.245804 10.050211 -2.375628 -1.738640 1.418381 -30.337750 -57.892472 -14.687871 -1.244119 -16.989916 0.665152 0.000000 0.000000 0.000000 14.078047 -4.065617 -5.475371 4.936995 9.576396 -16.794786 0.716525 -1.212499 0.610121 -56.890312 39.968256 30.210845 -1.490558 38.400382 0.396082 0.000000 0.000000 0.000000 
